<svg xmlns="http://www.w3.org/2000/svg" viewBox="0 0 60 60"><g id="Layer_2" data-name="Layer 2"><g id="Layer_1-2" data-name="Layer 1"><g opacity="0.2"><rect width="60" height="60" rx="12" fill="#fff"/></g><path d="M48,41.27c0-1.57.33-7.78-4.57-12.72-3.3-3.33-7.53-5-13.43-5.27V15.75l-18,12,18,12V32.27a18.88,18.88,0,0,1,8.12,1.87c2.9,1.3,5.19,4.12,7.11,7.18L47,44.25h1C48,43.3,48,42.1,48,41.27Zm-1.49-.64c-4.46-7.57-9.48-9.88-18-9.88v6.07L14.62,27.76,28.5,18.69v6.06C47.34,24.75,46.51,40.63,46.51,40.63Z" fill="#fff"/></g></g></svg>