<svg xmlns="http://www.w3.org/2000/svg" viewBox="0 0 60 60"><g id="Layer_2" data-name="Layer 2"><g id="Layer_1-2" data-name="Layer 1"><g opacity="0.2"><rect width="60" height="60" rx="12" fill="#fff"/></g><path d="M12,44.25h1l1.8-2.93c1.92-3.06,4.21-5.88,7.11-7.18A18.88,18.88,0,0,1,30,32.27v7.48l18-12-18-12v7.53c-5.9.26-10.13,1.94-13.43,5.27C11.67,33.49,12,39.7,12,41.27,12,42.1,12,43.3,12,44.25Zm19.5-19.5V18.69l13.88,9.07L31.5,36.82V30.75c-8.53,0-13.55,2.31-18,9.88C13.49,40.63,12.66,24.75,31.5,24.75Z" fill="#fff"/></g></g></svg>