<svg xmlns="http://www.w3.org/2000/svg" viewBox="0 0 62.54 59.75"><g id="Layer_2" data-name="Layer 2"><g id="Layer_1-2" data-name="Layer 1"><path d="M61.25,17.59A24,24,0,0,0,52.77,4.66,21.4,21.4,0,0,0,38.85,0,41.59,41.59,0,0,0,33,.49a7.3,7.3,0,0,1-1,.19,11.17,11.17,0,0,0-1.3.27l-1.12.3A43.1,43.1,0,0,0,10.67,12.38a38.8,38.8,0,0,0-3.42,3.89Q0,25.77,0,35.93A24.68,24.68,0,0,0,7.57,53.8a24.94,24.94,0,0,0,4.35,3.58c.17.08.53.27.8.43a22.13,22.13,0,0,0,3.79,1.41c.44.1,1.31.26,1.92.35a24.71,24.71,0,0,0,6.72-.12,35.51,35.51,0,0,0,4.7-.91c1.11-.28,4.07-1.28,5.59-1.88a97,97,0,0,0,8.93-4.29,80.32,80.32,0,0,0,8.38-5.52l1.62-1.32a20.8,20.8,0,0,0,7.38-10.68,17,17,0,0,0,.74-5.72C62.48,25,62.93,21.78,61.25,17.59ZM52.63,32.13a10.22,10.22,0,0,1-3.48,4.22L48,37.24c-.07.06-.71.47-1.42.92-1.18.73-1.67,1-3.29,1.94-.84.47-4.42,2.22-5.28,2.58l-1.3.55c-.28.13-.75.31-1.06.42s-.78.28-1,.4a49.45,49.45,0,0,1-8.75,2.49,25.89,25.89,0,0,1-4.41.23A4.58,4.58,0,0,1,18,45.14a13.63,13.63,0,0,1-3.47-5.57,14.64,14.64,0,0,1-.19-5.31A22.53,22.53,0,0,1,19.75,24a32.11,32.11,0,0,1,3.4-3.25c.41-.31.81-.64.9-.73s2.82-1.91,3.81-2.48a25.2,25.2,0,0,1,5-2.22,16.71,16.71,0,0,1,2.76-.79c.38-.07,1.08-.22,1.55-.33A21.71,21.71,0,0,1,40.44,14a23.88,23.88,0,0,1,6.17.46c.61.13,1.79.35,2.6.5,2.45.43,2.16.24,2.71,1.8C54.05,22.79,54.31,28.43,52.63,32.13Z" fill="#fbb03b"/></g></g></svg>