<svg xmlns="http://www.w3.org/2000/svg" viewBox="0 0 95.9 58.61"><g id="Layer_2" data-name="Layer 2"><g id="Layer_1-2" data-name="Layer 1"><path d="M.15,58.31A5,5,0,0,1,.24,55.6c.51-2,2.26-5.06,4.68-8.2a73,73,0,0,1,6.36-6.78c.93-.86,1.84-1.7,2-1.88s1.12-1,2.11-1.8,1.89-1.59,2-1.71c.58-.57,9.2-7.12,9.91-7.52,0,0-.39-.47-.9-1a48.77,48.77,0,0,1-7.29-10.39,27.59,27.59,0,0,1-2.59-7.36A12.6,12.6,0,0,1,16.22,5c.09-2.45.36-3.35,1.28-4.31L18.19,0l2.38.12a32.67,32.67,0,0,0,5.33,0C28.24,0,28.45,0,29.29.35c1.25.48,2.27,1.56,3.77,4,1.69,2.77,4,6.24,5,7.66A62.5,62.5,0,0,0,43,17.8s.68-.36,1.44-.79,2.17-1.23,3.16-1.75L50,14c.93-.52,8.72-4.41,8.83-4.41S60.22,9,62.47,7.91C64.32,7,72.94,3.64,74.14,3.31c.26-.07,1.46-.44,2.67-.83s2.51-.74,2.88-.8a3.58,3.58,0,0,0,.92-.25c.28-.14,3.65-.77,6.29-1.16,2.82-.43,6.23-.1,7.73.74,1.17.66,1.45,1.5,1.12,3.37a14.26,14.26,0,0,0,0,5.05c.44,2.83-.06,4.15-2.08,5.47-1.44.95-2.46,1.41-6.85,3.13-1.67.65-3.24,1.28-3.5,1.4s-1.55.6-2.88,1.08l-2.72,1c-.17.08-.77.31-1.32.53s-2.91,1.14-5.22,2.06c-3.84,1.53-5,2-5.91,2.42-.17.08-.7.29-1.17.47-1.95.74-8.25,3.48-8.21,3.57S57.4,32,59.2,33.68s5.13,4.89,7.4,7.16c4.86,4.88,5.9,6,7.86,8.5,3.38,4.3,4.9,7.68,4,8.95-.24.35-.32.36-1.51.27S75,58.27,72.19,57c-1.77-.78-10.48-5.16-10.84-5.45a7.87,7.87,0,0,0-.7-.42c-1.34-.71-7.22-4-7.36-4.11S52,46.23,50.6,45.4c-2.28-1.36-7.47-4.65-7.66-4.85s-.73-.55-2.36-1.68a6.28,6.28,0,0,0-1.42-.82c-.13,0-3.9,1.82-8.38,4.05-6.92,3.43-9.17,4.59-13.64,7a6.62,6.62,0,0,0-.7.42,10.29,10.29,0,0,1-1,.59C13.48,51.12,4.34,56.7,4,57.05A16,16,0,0,1,1.8,58.34C1,58.7.36,58.69.15,58.31Z" fill="#8cc63f"/></g></g></svg>