<svg xmlns="http://www.w3.org/2000/svg" viewBox="0 0 225.44 266.65"><g id="Layer_2" data-name="Layer 2"><g id="Layer_1-2" data-name="Layer 1"><g id="layer1"><path id="path2221" d="M75.74,266.15c-1-2-2.3-9.14-3-16.47s-.91-13.4-1.06-27.49c-.13-11.91-.34-20.67-.51-20.85a10.45,10.45,0,0,0-1.59-.16c-.84,0-2-.12-2.66-.17l-2.37-.17-8.52-.62c-1.3-.1-16.85-1.35-18.93-1.53l-6-.56-5.64-.54c-2.46-.21-6.11-.59-6.26-.64a9.38,9.38,0,0,0-1.09-.14c-1.32-.13-3.49-.4-4.55-.57-.48-.08-1.26-.2-1.74-.26a15,15,0,0,1-4.45-1l-.26-.18.19-.16c.34-.27,1.43-.43,4.56-.65,6.41-.45,22.18-.58,40.79-.36,6.45.08,11.84.17,12,.19s1.6,0,3.24.06l3,0,0-.7c0-1.28-.79-15.39-1.36-25.73-.31-5.63-.67-12.29-.8-14.79s-.24-4.6-.26-4.65-4.31-.1-15.71-.1c-18.35,0-19.59,0-30.85-.37-4.29-.13-7.85-.35-10-.62-2.88-.36-3.92-.63-4.45-1.15-.36-.35-.34-.6.14-1.39a1.84,1.84,0,0,0,0-2.51,3.83,3.83,0,0,1-.4-.93c0-.29,0-.35.33-.69.62-.62,2-1,4.84-1.38,1.3-.17,1.75-.22,5.16-.47,5.28-.4,15.55-.66,28.63-.74l10.45-.06-3.74-3.19c-2.06-1.76-3.79-3.21-3.84-3.23a.13.13,0,0,0-.14.05,18.72,18.72,0,0,1-2.74,1.63,30.61,30.61,0,0,1-9,2.46,38.82,38.82,0,0,1-8.05.14,17.73,17.73,0,0,1-3.07-.84,1.38,1.38,0,0,0-.34-.12s-.49-.22-1-.49c-4.63-2.33-7.67-7.07-8.41-13.12a32.82,32.82,0,0,1-.05-5.43,27.26,27.26,0,0,1,3.16-10.14,8.79,8.79,0,0,0,.59-1.2s-.82-.89-1.79-1.9-2-2.06-2.23-2.35-.88-1-1.39-1.53S13.32,97,13,96.63l-.7-.8a77.41,77.41,0,0,1-7.75-10.4c-1-1.68-1.19-2-1.9-3.45C1,78.69,0,75.44,0,73.34c0-1.57.31-1.83,1.5-1.21.81.42,1.28.48,1.67.2a2.13,2.13,0,0,0,.46-.43l.56-.63c.35-.37.43-.42.76-.42s.43.05.85.46A8.74,8.74,0,0,1,7,73a76.25,76.25,0,0,0,4.62,7c1.66,2.23,2.21,2.91,5,6.1,1.44,1.69,7.22,7.66,9.34,9.67,1.11,1.05,1.12,1.05,1.34.91a23.82,23.82,0,0,1,2.64-1.33,17.25,17.25,0,0,1,3.65-1.09c.24,0,.64-.12.88-.18a27.12,27.12,0,0,1,5.16,0,14.53,14.53,0,0,1,6.2,2.38c.64.53.86.88.85,1.36s-.1.59-.67,1.3a3.15,3.15,0,0,0-.87,2,4.88,4.88,0,0,1-.36,1.29l-.22.43.69.71a36.84,36.84,0,0,1,6.58,9.2,21.08,21.08,0,0,1,2.27,8.4v.65l2.12,1.82c1.16,1,2.14,1.84,2.16,1.87s1.71,1.49,2.1,1.81l3.76,3.25c1.94,1.69,3.54,3.06,3.56,3s0-.93-.06-2-.17-4.21-.26-6.9c-.71-19.89-.71-30.23,0-34.41.37-2.2.88-2.74,2.07-2.21a3.56,3.56,0,0,0,1.28.42A2.7,2.7,0,0,0,72,88.18a3,3,0,0,1,1.28-.43c.48,0,1,.56,1.32,1.49,1.61,4.47,2.63,17.81,3.63,47.79l0,.65,14,.19c17.55.24,29.24.43,33.54.55,8,.22,12.3.28,12.37.18a10.57,10.57,0,0,0,.12-1.43c.32-7.2,1.63-25.55,2.42-33.89.58-6.17,1.21-9.89,1.7-10.08.22-.08.38.14.56.75.76,2.57,1.36,10.07,1.8,22.42.22,6.2.48,17.39.48,20.63,0,.92,0,1.74.05,1.81s.3.14,1.86.14c1,0,3.7.06,6,.14l7.6.21,8.83.27c10.55.35,14,.41,13.91.26a3.84,3.84,0,0,0-.6-.46l-.63-.44-.92-.7c-1.14-.86-2.3-1.75-2.36-1.81s-.63-.52-1.35-1.09-1.38-1.11-1.45-1.19l-.31-.27L174,132.22c-1-.83-1.8-1.53-1.86-1.56a15.58,15.58,0,0,0-1.92,1c-1.93,1.09-6,3.11-6.2,3.11a4,4,0,0,0-.5.21c-.25.12-.79.34-1.2.49l-.92.35-1,.34c-4.07,1.27-7.87,1.38-8.94.26a.9.9,0,0,1-.24-.38c0-.32.77-.93,2.09-1.65a76.25,76.25,0,0,0,8.86-6.06l1.22-1c.35-.28.66-.52.68-.55l1.12-.91a7.33,7.33,0,0,0,1.05-.93s-.67-.75-1.46-1.58-1.88-2-2.41-2.66c-1.13-1.31-3.61-4.42-4.36-5.46-.64-.89-2.68-3.95-2.75-4.12a5.8,5.8,0,0,0-.33-.57c-.15-.24-.57-1-.94-1.71-2.36-4.52-3.28-8.68-2.17-9.87.34-.36.63-.46,1.85-.59a5.73,5.73,0,0,0,1.75-.4c2.13-.88,2.69-.83,3.89.4.75.76,1.15,1.36,3.41,5.12,2.1,3.49,3.81,6.09,6.06,9.24.79,1.1,1.56,2.19,1.72,2.4s2.72,3.66,2.8,3.75,2.28-1.93,2.45-2.12.36-.33.7-.62.65-.57.69-.62l1.62-1.4c.84-.71,1.59-1.36,1.66-1.43s.37-.34.66-.58.54-.45.57-.48,3-2.48,4.24-3.51c4.38-3.53,7.81-5.75,9.94-6.42a3.27,3.27,0,0,1,1.43-.21c.61,0,.67,0,1,.34a4.17,4.17,0,0,1,.7,1.26,6.61,6.61,0,0,0,1.3,2.15c.71.91.87,1.28.83,2-.06,1-.61,1.76-2.49,3.61-.57.56-1.49,1.4-2,1.87l-1.05.92s-.55.46-1.18,1L193,115.68c-.27.23-1.95,1.56-2.49,2-.26.2-.6.47-.74.6s-.64.51-1.1.85-.85.64-.87.67-.56.44-1.18.9l-1.23.92c-.13.11-1.89,1.39-2.88,2.1-.48.34-.92.66-1,.71s-.62.44-1.27.88a14.45,14.45,0,0,0-1.2.88c0,.08.15.32,1.21,1.66.37.46,1,1.33,1.49,1.93l1.54,2a83.92,83.92,0,0,1,5.16,7.46l.42.73L193,140c2.28,0,5.25.1,6.6.16,2.56.1,7.74.46,8.87.61l1.58.18c1.48.14,5.52.83,6.91,1.17,1,.26,3.1.86,3.47,1l.39.16c1.38.56,2.34,1.12,2.34,1.36,0,.07-.12.15-.27.18a31.24,31.24,0,0,1-4.23-.19c-1-.09-3.06-.15-6.3-.18-5.85-.05-8.87.06-18.45.69l-8,.51-2.49.18c-2.86.24-14.06.6-31.35,1-3.53.08-6.48.16-6.54.18s-.11.41-.07,2c0,1.07.1,3.92.15,6.32.22,11.44.58,22.57,1,31.12.19,4.05.48,9.22.52,9.33a7,7,0,0,0,1.94.15c4.05.11,23.39.83,24,.89.26,0,1.78.09,3.37.13s3.73.13,4.76.18c3,.15,9.49.45,11.46.53,1,0,2.44.11,3.23.16s2.25.14,3.24.19,2.32.12,3,.17l2.71.18c4.75.3,7.36.5,10.14.78a62.65,62.65,0,0,1,7.39,1c.15,0,.42.1.62.13a8.41,8.41,0,0,1,1,.29c1.62.53,1.78.88,1,2.17-.62,1-.62,1.17-.09,2.25.46.93.5,1.3.17,1.67-1.29,1.47-10.08,1.86-29.9,1.33-7.3-.2-12.92-.39-15.52-.52l-3.5-.14c-1.42-.05-3.21-.13-4-.18l-3.76-.17c-2.94-.11-9.38-.4-11.41-.52l-3.67-.18-3.06-.14-.92,0,.22.18.65.61c.24.22,2.76,2.5,5.59,5l5.34,4.81,3.26,2.95.75.68.54-.47a20.44,20.44,0,0,1,5.42-3.2l.68-.27a2.4,2.4,0,0,1,.48-.16l1.11-.3c.44-.12,1.34-.3,2-.41a14.07,14.07,0,0,1,3.23-.15,15.53,15.53,0,0,1,3.41.31,15.21,15.21,0,0,1,2.71.68,15,15,0,0,1,3.71,1.76c.86.66,1.15,1,1.15,1.52s-.11.55-.7,1.22a6,6,0,0,0-.65.85,4.94,4.94,0,0,0-.22,2.12c.06,0,.78.37,1.6.79,1.26.65,2,1.08,3.16,1.78a44.07,44.07,0,0,1,4.22,3.35,16.08,16.08,0,0,1,3.52,4.63c2.75,5.28,2.18,11-1.6,16a6,6,0,0,0-.5.74A18.38,18.38,0,0,0,200,252.7c3.2,3.06,7.66,7.62,8.85,9.05.89,1.05,1.09,1.57.55,1.41a23.81,23.81,0,0,1-3.91-2.43l-.4-.28-.92-.66-1.48-1.1-3.7-2.82c-1.56-1.2-2.87-2.19-2.93-2.21s-.24.08-.41.22c-.39.35-1.71,1.34-2.45,1.85a39,39,0,0,1-10.23,4.57,53.9,53.9,0,0,1-13.73,2,12.08,12.08,0,0,1-2.61-.13,11.35,11.35,0,0,1-6.88-4.57,19.21,19.21,0,0,1-3.53-9.1,29.75,29.75,0,0,1-.33-5.82,32.82,32.82,0,0,1,1.11-8.24,32.45,32.45,0,0,1,3.6-8.61l.33-.53-.37-.34c-.2-.19-.74-.64-1.2-1s-1-.78-1.14-.94l-.78-.65-.58-.47c-.31-.29-8.2-6.78-8.22-6.76s.16,1.94.53,5.49c.81,7.74,1.72,14.36,3.6,26.3,1.57,10,1.63,10.48,1.64,12.78,0,1.66,0,1.77-.19,2.12s-.53.55-1.19.44c-1.17-.18-1.58-.18-1.94,0a3.1,3.1,0,0,0-.52.35,3.57,3.57,0,0,1-1.24.76,1.38,1.38,0,0,1-1.14-.45c-2-2.25-4.61-11.05-6.71-22.65a289,289,0,0,1-3.68-31.82l-.15-2.41-.26-.27a1,1,0,0,0-.66-.33c-.47-.06-6.79-.44-9.64-.58-2.23-.11-7.24-.39-9.27-.53l-11.45-.71c-11.71-.72-12.15-.75-21.51-1.38l-5.39-.35s0,.45-.26,5.86c-.16,4-.45,9.56-1,18.21-.92,15.81-1.09,19.87-1.32,31.07-.07,3.59-.17,7-.22,7.62C76.52,266.69,76.24,267.14,75.74,266.15Zm100.34-13.54a35.31,35.31,0,0,0,4.28-.65c1-.19,2.25-.49,2.58-.61.12,0,.57-.19,1-.31s.86-.27,1-.32l.61-.22a19.57,19.57,0,0,0,4-1.94c0-.05-1.06-.93-2.36-1.95-2-1.59-2.72-2.16-4.11-3.31l-2.74-2.19a3.21,3.21,0,0,1-.44-.37l-1.45-1.18c-.73-.57-1.33-1.06-1.36-1.09s-.44-.36-.92-.74-1-.78-1.09-.9-.44-.37-.7-.57-.72-.56-1-.8-.72-.6-1-.79l-.61-.5c-.58-.49-2.78-2.26-2.81-2.26a7.46,7.46,0,0,0-.42.79,26.67,26.67,0,0,0-2.52,8.84,32.24,32.24,0,0,0,.05,5.73,11.79,11.79,0,0,0,1.34,4.42,2.94,2.94,0,0,0,1.13,1.17c.09,0,1.37,0,2.84,0A43.63,43.63,0,0,0,176.08,252.61Zm17.27-7.11a8.79,8.79,0,0,0,2.22-5,9.15,9.15,0,0,0-.84-4.18,14.09,14.09,0,0,0-1.55-2.57l-.58-.7a34,34,0,0,0-4.14-4c-.7-.56-3.66-2.61-4.65-3.21-.65-.39-1.28-.79-1.41-.88s-.4-.17-1.54-.17a13.23,13.23,0,0,0-6.81,1.6c-.67.38-1.31.85-1.25.92s1.71,1.59,3.76,3.47l7.07,6.52,3.94,3.64c.31.28,1,.94,1.53,1.44,1.91,1.83,3.73,3.5,3.82,3.5A2.1,2.1,0,0,0,193.35,245.5Zm-68.78-50.42-.7-.6-1.35-1.13c-.41-.33-.77-.63-.79-.66s-1.43-1.22-2.8-2.35c-.83-.68-1.41-1.18-1.52-1.28L115,187c-1.3-1.07-2.61-2.17-2.92-2.44s-.69-.59-.85-.71l-.29-.21-.68.41a32.12,32.12,0,0,1-3.39,1.73c-.24.09-.54.21-.66.27a12.18,12.18,0,0,1-1.48.54,19.65,19.65,0,0,1-6.28,1,13.79,13.79,0,0,1-4.83-.76A13.3,13.3,0,0,1,84.69,176a19.16,19.16,0,0,1,.32-6.54,24.11,24.11,0,0,1,1.62-4.29c.35-.73.65-1.36.65-1.41s-.09-.14-.2-.22a3,3,0,0,1-.42-.34c-.12-.12-.71-.62-1.31-1.12-1.28-1.07-3.35-2.82-3.41-2.89s-.52-.45-1.11-.94-1.21-1-1.39-1.18a2.86,2.86,0,0,0-.45-.36c-.15-.09-.15-.71.07,8.26.19,7.68.26,12.6.32,20.68l.05,8.47h1.85c1,0,5,.08,8.93.17s8.87.22,11.06.26,5.39.12,7.12.18C121.09,195.09,124.68,195.17,124.57,195.08Zm12.49-2.76c-.11-4.23-.08-22.21,0-26.5.18-6.15.43-13.17.62-17.15a9,9,0,0,0,0-1.43c0-.06-15.57.18-15.63.24a6.64,6.64,0,0,0,.7.85,44,44,0,0,1,5.74,8.19,13.27,13.27,0,0,1,1.18,9.84,17.64,17.64,0,0,1-5,7.25l-.75.7s-.22.19-.43.37l-.62.5-.42.37c-.24.21-3.49,2.69-3.76,2.88s-.15.16,1.28,1.41l1.77,1.57c.56.52,1.79,1.61,2.18,2s1.37,1.21,2.4,2.16l.74.65c.17.14.4.36.53.48s.56.51,1,.86,1,.85,1.22,1.1l.83.74.83.74c.27.25,1,.89,1.58,1.41l1.23,1.09c.25.25.9.83,1.61,1.45.38.34.77.7.86.81s.19.2.24.2A18.88,18.88,0,0,0,137.06,192.32Zm-36.58-14.07a11,11,0,0,0,3.06-.79c0-.06-.13-.17-.88-.78l-.52-.44s-.4-.34-.83-.7-.81-.67-.83-.7c-.24-.29-5.11-4.28-5.16-4.23a8.69,8.69,0,0,0-.66,2.1,4.9,4.9,0,0,0,1,4.48,4.68,4.68,0,0,0,1.94,1,1.37,1.37,0,0,1,.43.08A8.67,8.67,0,0,0,100.48,178.25Zm13.4-6c1.54-.87,2.3-1.35,4.31-2.68,3.28-2.18,5.17-4.05,5.79-5.72a6.41,6.41,0,0,0,.33-2.49c-.24-2.55-1.08-4.75-4.34-11.42l-1.17-2.4-4.2.06c-7.81.12-19.91.23-24.57.23-5,0-6.2.05-6,.22.08.05.35.29.62.53.56.52.87.79,1.68,1.48.33.29.67.59.74.67s1.56,1.39,3.3,2.92c3.32,2.9,3.21,2.83,3.52,2.49.06-.07,1.93-1.42,2.11-1.52l1.58-1a27.28,27.28,0,0,1,6.5-3l1-.32c.32-.09,1.58-.34,2.23-.44.26,0,.72-.11,1-.17s1.51-.13,2.71-.18c4.71-.18,8.43.44,9,1.51a2.35,2.35,0,0,1-.1,1.67,2.9,2.9,0,0,0,0,2.15,3.6,3.6,0,0,1,.19,1.32.93.93,0,0,1-.43.84c-.65.58-1.77.95-4.14,1.37l-1.44.25-1.58.25c-.64.11-1.29.22-1.44.27l-.65.14a23.83,23.83,0,0,0-3.67,1,29.27,29.27,0,0,0-5.13,2.91l-.25.19.22.2c.12.12.51.47.87.78l.7.61.74.65,1.19,1.05c.77.71,1.22,1.11,1.92,1.71l.7.61c0,.05.51.47,1.61,1.45,2.09,1.87,2.9,2.57,3,2.57A16.32,16.32,0,0,0,113.88,172.21ZM37.66,126.52a22.84,22.84,0,0,0,3.8-.57l.78-.22.4-.1-.35-.3-1.1-.93-1.09-1c-.33-.3-.76-.66-2.19-1.81-.33-.27-.63-.51-.65-.54l-.83-.7c-.44-.36-2.59-2.45-4.79-4.64-3.17-3.15-4-4-4.09-3.86a25.52,25.52,0,0,0-1.1,3.64,11,11,0,0,0-.25,3.15,9.25,9.25,0,0,0,.62,4.17,6.27,6.27,0,0,0,2,2.69,7,7,0,0,0,2.67,1A54.87,54.87,0,0,0,37.66,126.52ZM46,114.27a51.2,51.2,0,0,0-4.77-9.42l-.86-1.41-.79,0a14.29,14.29,0,0,0-3.15.29,6,6,0,0,0-1,.27.56.56,0,0,1-.24.08,1.17,1.17,0,0,0-.32.1c-.24.09-.21.12,3.16,3.5,1.88,1.88,3.71,3.68,4.07,4,1,.88,1.62,1.4,2.18,1.85a21.46,21.46,0,0,1,1.82,1.52.15.15,0,0,0,.11.06A2.76,2.76,0,0,0,46,114.27ZM92.22,258.39c-.44-.07-1-.18-1.36-.25a15.54,15.54,0,0,1-2.67-1l-.56-.3a17.13,17.13,0,0,1-3.06-2.52,17.37,17.37,0,0,1-5.34-12.59q0-7.17,5.11-13.85a26.81,26.81,0,0,1,2.41-2.74A30.33,30.33,0,0,1,100,217.3l.79-.22a8.27,8.27,0,0,1,.92-.18,4.53,4.53,0,0,0,.7-.14,30.81,30.81,0,0,1,4.15-.34c.55,0,1.48.06,2.07.12l1.06.1-.43-.69c-.7-1.11-.76-1.46-.22-1.46a7.55,7.55,0,0,1,2.81,1.42c.57.44,1.73,1.43,2,1.68a1.62,1.62,0,0,0,.4.32,12.49,12.49,0,0,1,1.93.91,12,12,0,0,1,2.67,2c1.09,1.15,1.2,1.69.47,2.42l-.4.4.23.38.5.81a35.31,35.31,0,0,1,2,4,19.67,19.67,0,0,1,1.63,8.09,12.05,12.05,0,0,1-.52,4,14.55,14.55,0,0,1-5.2,7.52l-1.14.93a57,57,0,0,1-5.9,3.9,67.66,67.66,0,0,1-6.29,3c-1.07.43-3.16,1.13-3.94,1.33a25.16,25.16,0,0,1-3.31.64A17.27,17.27,0,0,1,92.22,258.39Zm5.2-9.18a34.3,34.3,0,0,0,6.16-1.76c.2-.08.53-.21.75-.28l.74-.29.92-.4c.6-.25,3.13-1.48,3.72-1.81,1.14-.65,1.48-.85,2.31-1.37l1-.64s.42-.33.83-.63a7.29,7.29,0,0,0,2.45-3c1.18-2.61,1-6.59-.5-10.87-.39-1.1-.18-1-1.91-1.27l-1.83-.35a17,17,0,0,0-4.35-.32,14.62,14.62,0,0,0-2.3.19l-1.09.23a12.27,12.27,0,0,0-2,.55,18.25,18.25,0,0,0-3.52,1.57c-.7.4-2.52,1.59-2.68,1.75s-.35.29-.64.51a23.49,23.49,0,0,0-2.39,2.29,15.85,15.85,0,0,0-3.83,7.21,10.32,10.32,0,0,0,.13,3.74,9.62,9.62,0,0,0,2.45,3.93,3.24,3.24,0,0,0,2.42,1.15A18.93,18.93,0,0,0,97.42,249.21Zm-83.77-5.83a2.74,2.74,0,0,1,0-1.52,15,15,0,0,1,2.63-4.61,42,42,0,0,1,3.57-3.81c.53-.48,1-1,1.13-1.05s.63-.56,1.19-1,1.06-.89,1.13-1c.33-.32,5.18-4,5.57-4.23,0,0-.22-.26-.5-.57a27.36,27.36,0,0,1-4.1-5.84,16,16,0,0,1-1.46-4.14,7.06,7.06,0,0,1-.18-2.19c.05-1.38.2-1.88.72-2.42l.39-.41,1.33.07a17.65,17.65,0,0,0,3,0c1.32-.07,1.43-.06,1.9.12.71.27,1.28.88,2.12,2.27,1,1.55,2.23,3.5,2.83,4.3a35.29,35.29,0,0,0,2.77,3.24s.38-.2.8-.45,1.23-.69,1.78-1l1.35-.73c.53-.29,4.9-2.48,5-2.48s.76-.33,2-.92c1-.49,5.88-2.4,6.56-2.59.14,0,.82-.24,1.5-.46s1.41-.42,1.62-.45a2.78,2.78,0,0,0,.52-.14c.15-.08,2.05-.43,3.53-.66a8.28,8.28,0,0,1,4.34.42c.66.38.82.85.63,1.9a7.9,7.9,0,0,0,0,2.83c.25,1.59,0,2.34-1.17,3.08a18.81,18.81,0,0,1-3.85,1.76c-.93.36-1.82.71-2,.78s-.88.34-1.62.61l-1.53.57-.74.3-2.93,1.15c-2.16.86-2.84,1.14-3.33,1.36-.09,0-.39.16-.65.26-1.1.42-4.64,2-4.62,2s.85.82,1.86,1.75,2.88,2.75,4.16,4a45.61,45.61,0,0,1,4.42,4.77c1.9,2.42,2.75,4.32,2.25,5-.13.2-.18.2-.85.15a6.9,6.9,0,0,1-2.68-.86c-1-.44-5.89-2.9-6.09-3.07l-.39-.23c-.76-.4-4.06-2.24-4.14-2.31L42,236.13c-1.28-.77-4.2-2.61-4.3-2.73s-.41-.31-1.33-.94a3.38,3.38,0,0,0-.8-.46c-.07,0-2.19,1-4.71,2.27-3.89,1.93-5.15,2.58-7.66,3.95a4.54,4.54,0,0,0-.4.23,4.06,4.06,0,0,1-.58.33c-1.08.56-6.22,3.69-6.39,3.9a8.81,8.81,0,0,1-1.25.72C14.13,243.6,13.77,243.6,13.65,243.38Zm32.63-52.53a7.32,7.32,0,0,1-1.29-1c-1.09-1-2.13-1.95-3-2.59-.33-.26-.63-.49-.65-.52s-.81-.64-1.51-1.13c-.4-.29-.77-.56-.83-.62s-7-4.64-7-4.64-.66-.42-1.42-.93-1.63-1.09-1.91-1.29-.89-.62-1.33-.94a8.74,8.74,0,0,0-.86-.6c-.09,0-5.69,2.48-6.91,3.06l-1.35.62c-.17.07-1.71.82-3.41,1.67-2.6,1.29-4,2.07-7.24,3.94-.16.09-.81.51-1.44.94a7,7,0,0,1-2.23,1.24c-.43,0-.58-.72-.34-1.63a14.2,14.2,0,0,1,2.93-4.89c.12-.15.89-.94,1.71-1.76a51.6,51.6,0,0,1,5.43-4.68c.85-.65,3.9-2.79,5.1-3.59l1.14-.74-.51-.52a26.23,26.23,0,0,1-4.43-6.83,12.29,12.29,0,0,1-1.07-5.1,2.69,2.69,0,0,1,.29-1.55c.42-.84.49-.87,2.34-.94a15.29,15.29,0,0,0,2.16-.2,8.17,8.17,0,0,1,1.33-.19,2.18,2.18,0,0,1,2,.69,13.78,13.78,0,0,1,1.7,2.39c0,.09,2,3.07,2.45,3.67.67.86,2.2,2.66,2.52,3l.26.25.51-.29.86-.48,1.84-1c.81-.45,2.11-1.14,2.88-1.54,1.57-.82,10.39-5.23,11.46-5.74L48,155.6l1.62-.76a57.94,57.94,0,0,1,5.69-2.3c2.45-.69,3.12-.47,3.79,1.28A6.42,6.42,0,0,0,60.46,156a2.28,2.28,0,0,1,.8,1.67c0,1.15-1.2,2.45-4,4.41-.4.27-.74.49-.76.49s-.35.2-.73.43a81.63,81.63,0,0,1-8.21,4.27c-1.86.9-10.85,4.9-11.38,5.06-.18,0,.09.35,2.5,2.75a45.84,45.84,0,0,1,5.26,5.83,19,19,0,0,1,3.28,6.13,7.58,7.58,0,0,1,.22,3.16C47.19,190.86,46.83,191.07,46.28,190.85Zm117.47-3.44a9.14,9.14,0,0,1-5.38-2.68,8.8,8.8,0,0,1-2.25-4.29,13.09,13.09,0,0,1,.06-4.46,24,24,0,0,1,4.43-8.9,22.39,22.39,0,0,1,2.57-2.83,23.07,23.07,0,0,1,3.41-3,34.64,34.64,0,0,1,3-2.05s.3-.16.62-.35a33.81,33.81,0,0,1,3.68-1.79,28.52,28.52,0,0,1,3.9-1.19,23.23,23.23,0,0,1,4-.49,19.36,19.36,0,0,1,6.41.79,10.5,10.5,0,0,1,4.43,2.54c.8.9.74,1.41-.28,2.51a4.22,4.22,0,0,0-.64.8c0,.06.12.17.27.23a4.87,4.87,0,0,1,1.44,1.36,5.55,5.55,0,0,1,.25,4.52,20,20,0,0,1-3.7,6.12,41.86,41.86,0,0,1-4.24,4.16l-.61.53c-.05.05-.35.29-.66.52-.66.5-.66.51-1,.79s-3.28,2.27-4.2,2.8l-1.18.7c-.28.18-2.88,1.47-3.71,1.84-.55.25-2.38.91-3.06,1.11s-.9.25-1.88.46l-1.1.24A25.35,25.35,0,0,1,163.75,187.41Zm4.66-8.73a25.85,25.85,0,0,0,3-.66c.89-.27,3-1,3.1-1.07l.44-.18c.19-.06.56-.21.83-.33l1.14-.51c1.06-.45,4-2,5.46-2.92.82-.49,2.95-1.9,3.23-2.12l1.06-.82a21.81,21.81,0,0,0,2.9-2.76,3.83,3.83,0,0,0,1.29-2.72l-.06-.36-.26.32c-.51.62-.54.62-3.92.59l-3,0-1.55.27a17.19,17.19,0,0,0-3.78,1,29,29,0,0,0-3.93,2c-4,2.5-7.42,6.17-8.6,9.18-.4,1-.41,1.12-.13,1.17A16.51,16.51,0,0,0,168.41,178.68Zm-53.56-45c-2.15-.31-7-2.64-11.09-5.32-2.48-1.63-5.44-3.75-6.59-4.72l-.46-.39-.59.24c-1.14.48-6,2.84-7.23,3.5-2.82,1.55-3.35,1.61-3.43.38-.12-1.87,1.54-4.63,4.62-7.69l1.2-1.18-1.62-1.66a67.59,67.59,0,0,1-4.86-5.62c-2.07-2.74-3.69-5.88-3.87-7.51-.13-1.22.25-1.7,1.86-2.35a9.59,9.59,0,0,0,2-1.08c1.07-.75,1.44-.9,2.14-.9,1,0,2,.72,3.46,2.4.63.72,4.45,5.45,5.07,6.27l.87,1,1,1.21c.57.71,1.85,2.2,1.89,2.2l1.11-.7c2.41-1.56,7.7-4.67,9.84-5.79.57-.29,1.41-.73,1.86-1,5-2.66,7-3.37,8.07-2.92a4,4,0,0,1,1.44,1.68,11,11,0,0,0,1,1.48c1.3,1.51,1.43,1.72,1.42,2.4,0,1.29-1.27,2.75-4,4.58a65.16,65.16,0,0,1-7.73,4.19l-2,.91c-.48.23-1.76.79-2.84,1.25s-2,.86-2,.89a4.26,4.26,0,0,0,.79,1l2.42,2.6c2.91,3.13,4.95,5.43,6,6.79l.52.66a8.73,8.73,0,0,1,.9,1.44c.43.84.49,1.18.22,1.47S115.62,133.79,114.85,133.69Z" fill="#fff"/></g><path d="M55.71,8.3a3.87,3.87,0,0,1-2.82,1.21,4,4,0,0,1-1.51-.28A3.69,3.69,0,0,0,49.92,9a39.81,39.81,0,0,0-5.48.39c-1.86.26-3.74.58-5.64,1s-3.79.81-5.65,1.25-3.67.86-5.42,1.23l-1.54,3.58q-1,2.41-2.24,5.4T21.46,28c-.85,2.17-1.64,4.22-2.34,6.15s-1.29,3.67-1.74,5.18a13.12,13.12,0,0,0-.67,3.27,3.33,3.33,0,0,1-.36,1.54,4.27,4.27,0,0,1-1,1.2,5.2,5.2,0,0,1-1.32.81,3.92,3.92,0,0,1-1.51.31,3.7,3.7,0,0,1-2.93-1.32,4.46,4.46,0,0,1-1.15-3A14.5,14.5,0,0,1,9,38.78c.36-1.4.82-3,1.4-4.67s1.23-3.51,2-5.37,1.44-3.66,2.15-5.4,1.37-3.33,2-4.8S17.62,15.88,18,15c-1.79.41-3.68.87-5.65,1.39a22,22,0,0,1-5.7.79A4.43,4.43,0,0,1,3.57,16a3.83,3.83,0,0,1-1.29-3,3.81,3.81,0,0,1,1.26-2.94A4.17,4.17,0,0,1,6.42,9a.31.31,0,0,1,.23.11,30.84,30.84,0,0,0,3.8-.48c1.3-.24,2.61-.53,3.91-.86s2.6-.68,3.89-1S20.77,6,22,5.7c.26-.59.53-1.23.81-1.9a9.83,9.83,0,0,1,1-1.84A5.44,5.44,0,0,1,25.21.56a3.57,3.57,0,0,1,2-.56A4.09,4.09,0,0,1,30,1a4,4,0,0,1,1.34,2.66c3-.63,6.1-1.27,9.25-1.9A48,48,0,0,1,50,.84,17.14,17.14,0,0,1,52.36,1a7.29,7.29,0,0,1,2.21.67,4.65,4.65,0,0,1,1.67,1.41,3.84,3.84,0,0,1,.67,2.36A3.93,3.93,0,0,1,55.71,8.3Z" fill="#fff"/><path d="M34.86,34.47c-.47,1.47-1,3-1.51,4.42s-1.05,2.94-1.51,4.42a14.86,14.86,0,0,0-.7,4.55,3.83,3.83,0,0,1-.34,1.6,4,4,0,0,1-.92,1.31,5.09,5.09,0,0,1-1.31.9A3.78,3.78,0,0,1,27,52a3.65,3.65,0,0,1-3.16-1.51A5.75,5.75,0,0,1,22.75,47a15.13,15.13,0,0,1,.64-4.38c.43-1.44.93-2.86,1.48-4.28s1.1-2.83,1.6-4.22a18.3,18.3,0,0,0,1-4.28,4.33,4.33,0,0,1,1.25-2.8,3.75,3.75,0,0,1,2.77-1.17A4,4,0,0,1,35.55,30,15,15,0,0,1,34.86,34.47Zm9.92-13.11A5.65,5.65,0,0,1,43.47,23a6.23,6.23,0,0,1-1.79,1.09,5.38,5.38,0,0,1-2,.39,5.82,5.82,0,0,1-2.4-.56,9,9,0,0,1-2.24-1.45,8.62,8.62,0,0,1-1.68-2,4.74,4.74,0,0,1-.67-2.38,3.77,3.77,0,0,1,1.21-2.8,3.91,3.91,0,0,1,2.82-1.17,4.12,4.12,0,0,1,3.19,1.45,1.87,1.87,0,0,1,.69-.19l.7,0a3.78,3.78,0,0,1,2.8,1.2,3.93,3.93,0,0,1,1.17,2.83A4.16,4.16,0,0,1,44.78,21.36Z" fill="#fff"/><path d="M62.25,34.61a3.46,3.46,0,0,1-2.71,1.23,3,3,0,0,1-1.73-.45,5.12,5.12,0,0,1-1.12-1,11.78,11.78,0,0,1-.75-1c-.21-.3-.42-.45-.65-.45a3.68,3.68,0,0,0-1.95.67,12.24,12.24,0,0,0-2.13,1.76,26.55,26.55,0,0,0-3.91,5.2A19.13,19.13,0,0,0,46,43.22a6,6,0,0,0-.48,2.13l.12.22A3.38,3.38,0,0,0,47.16,47a4.43,4.43,0,0,0,2,.45,6.8,6.8,0,0,0,2.38-.4,15.57,15.57,0,0,0,2-.86c.62-.32,1.2-.61,1.76-.87a3.84,3.84,0,0,1,1.62-.39,3.52,3.52,0,0,1,2.72,1.2,4,4,0,0,1,1.09,2.77,3.94,3.94,0,0,1-1.32,2.94,11.89,11.89,0,0,1-3.16,2.12,17.18,17.18,0,0,1-3.86,1.29,17,17,0,0,1-3.35.42,10.93,10.93,0,0,1-4.11-.79,12,12,0,0,1-3.52-2.12,10.12,10.12,0,0,1-2.46-3.22,9,9,0,0,1-.93-4,14.27,14.27,0,0,1,.73-4.25,27.41,27.41,0,0,1,2-4.59,30,30,0,0,1,2.91-4.41,26.48,26.48,0,0,1,3.6-3.78,18.38,18.38,0,0,1,4-2.63,9.51,9.51,0,0,1,4.08-1,7.45,7.45,0,0,1,4.53,1.39,10.2,10.2,0,0,1,3,3.53,4.17,4.17,0,0,1,.39,1.06,4.28,4.28,0,0,1,.11,1A4.08,4.08,0,0,1,62.25,34.61Z" fill="#fff"/><path d="M119.85,8.3A3.89,3.89,0,0,1,117,9.51a4,4,0,0,1-1.51-.28A3.64,3.64,0,0,0,114.06,9a39.59,39.59,0,0,0-5.48.39c-1.86.26-3.75.58-5.65,1s-3.78.81-5.64,1.25-3.68.86-5.43,1.23c-.33.79-.85,2-1.54,3.58s-1.43,3.41-2.23,5.4S86.46,25.85,85.6,28,84,32.23,83.25,34.16,82,37.83,81.52,39.34a13.12,13.12,0,0,0-.67,3.27,3.33,3.33,0,0,1-.37,1.54,4.1,4.1,0,0,1-1,1.2,5.32,5.32,0,0,1-1.31.81,4,4,0,0,1-1.51.31,3.72,3.72,0,0,1-2.94-1.32,4.5,4.5,0,0,1-1.14-3,14,14,0,0,1,.53-3.32q.53-2.1,1.4-4.67c.57-1.72,1.23-3.51,2-5.37s1.45-3.66,2.16-5.4,1.37-3.33,2-4.8L82.13,15q-2.68.62-5.65,1.39a21.9,21.9,0,0,1-5.7.79A4.4,4.4,0,0,1,67.71,16a3.83,3.83,0,0,1-1.29-3,3.81,3.81,0,0,1,1.26-2.94A4.17,4.17,0,0,1,70.56,9a.29.29,0,0,1,.22.11,30.61,30.61,0,0,0,3.8-.48c1.31-.24,2.61-.53,3.92-.86s2.6-.68,3.88-1,2.53-.68,3.72-1c.26-.59.53-1.23.81-1.9a9.86,9.86,0,0,1,1-1.84A5.29,5.29,0,0,1,89.35.56a3.54,3.54,0,0,1,2-.56,4.07,4.07,0,0,1,2.79,1A4,4,0,0,1,95.5,3.69c3-.63,6.1-1.27,9.25-1.9a47.94,47.94,0,0,1,9.42-.95,17,17,0,0,1,2.32.17,7.2,7.2,0,0,1,2.21.67,4.77,4.77,0,0,1,1.68,1.41,3.84,3.84,0,0,1,.67,2.36A3.93,3.93,0,0,1,119.85,8.3Z" fill="#fff"/><path d="M111.07,36.43a3.24,3.24,0,0,1-2.43,1.7V39a10.12,10.12,0,0,1-.23,2.12,10.27,10.27,0,0,0-.22,2.13,8.28,8.28,0,0,0,.5,3.27,9,9,0,0,0,1.09,1.82c.39.48.76.94,1.09,1.37a3.17,3.17,0,0,1,.51,2,3.92,3.92,0,0,1-.31,1.51,5.38,5.38,0,0,1-.81,1.32,4.27,4.27,0,0,1-1.2,1,3.33,3.33,0,0,1-1.54.36,3.44,3.44,0,0,1-2-.64,7.88,7.88,0,0,1-1.7-1.57,12.93,12.93,0,0,1-1.37-2,16.31,16.31,0,0,1-1-1.93,16.76,16.76,0,0,1-3.63,2.57,9,9,0,0,1-4.25,1.06,7.4,7.4,0,0,1-5.31-1.9,6.8,6.8,0,0,1-2-5.2,14.5,14.5,0,0,1,.72-4,34.49,34.49,0,0,1,2-5A48.71,48.71,0,0,1,92,32a36.48,36.48,0,0,1,3.58-4.7,19.55,19.55,0,0,1,3.94-3.38,7.47,7.47,0,0,1,4-1.28,6.32,6.32,0,0,1,3.61,1,9.36,9.36,0,0,1,2.57,2.6,12.3,12.3,0,0,1,1.57,3.47,13.77,13.77,0,0,1,.53,3.69A6.55,6.55,0,0,1,111.07,36.43Zm-6.91-3.22a3.64,3.64,0,0,0-.22-1.2,4.13,4.13,0,0,0-.56-1.09,6.82,6.82,0,0,0-1.71,1.34A22.56,22.56,0,0,0,99.8,34.5c-.63.86-1.27,1.78-1.9,2.77s-1.2,2-1.71,2.93-.94,1.89-1.31,2.74a15.23,15.23,0,0,0-.78,2.18A5.1,5.1,0,0,0,96.25,44a12.69,12.69,0,0,0,1.82-2c.56-.75,1.09-1.52,1.59-2.32s1-1.56,1.48-2.27a16.43,16.43,0,0,1,1.46-1.84,2.9,2.9,0,0,1,1.56-.95Z" fill="#fff"/><path d="M140.31,34.61a3.46,3.46,0,0,1-2.71,1.23,3,3,0,0,1-1.73-.45,5.12,5.12,0,0,1-1.12-1c-.3-.36-.55-.68-.76-1a.83.83,0,0,0-.64-.45,3.71,3.71,0,0,0-2,.67,12.58,12.58,0,0,0-2.12,1.76,26.41,26.41,0,0,0-2.1,2.46,28.24,28.24,0,0,0-1.82,2.74,19,19,0,0,0-1.25,2.6,6,6,0,0,0-.48,2.13l.11.22a3.49,3.49,0,0,0,1.48,1.4,4.5,4.5,0,0,0,2,.45,6.8,6.8,0,0,0,2.38-.4,16.87,16.87,0,0,0,2-.86c.61-.32,1.2-.61,1.76-.87A3.84,3.84,0,0,1,135,44.9a3.5,3.5,0,0,1,2.71,1.2,4,4,0,0,1,1.09,2.77,3.93,3.93,0,0,1-1.31,2.94,12.05,12.05,0,0,1-3.16,2.12,17.18,17.18,0,0,1-3.86,1.29,17,17,0,0,1-3.35.42,10.93,10.93,0,0,1-4.11-.79,11.89,11.89,0,0,1-3.52-2.12A10.12,10.12,0,0,1,117,49.51a9,9,0,0,1-.93-4,14,14,0,0,1,.73-4.25,26.6,26.6,0,0,1,2-4.59,30.73,30.73,0,0,1,2.9-4.41,26.53,26.53,0,0,1,3.61-3.78,18.38,18.38,0,0,1,4-2.63,9.51,9.51,0,0,1,4.08-1,7.45,7.45,0,0,1,4.53,1.39,10.31,10.31,0,0,1,3,3.53,4.17,4.17,0,0,1,.39,1.06,4.88,4.88,0,0,1,.11,1A4.08,4.08,0,0,1,140.31,34.61Z" fill="#fff"/><path d="M197.9,8.3a3.87,3.87,0,0,1-2.82,1.21,4,4,0,0,1-1.51-.28A3.67,3.67,0,0,0,192.12,9a39.59,39.59,0,0,0-5.48.39c-1.87.26-3.75.58-5.65,1s-3.78.81-5.65,1.25-3.67.86-5.42,1.23l-1.54,3.58c-.69,1.61-1.43,3.41-2.24,5.4s-1.63,4.07-2.48,6.23-1.64,4.22-2.35,6.15-1.29,3.67-1.74,5.18a13.61,13.61,0,0,0-.67,3.27,3.33,3.33,0,0,1-.36,1.54,4.1,4.1,0,0,1-.95,1.2,5.32,5.32,0,0,1-1.31.81,4,4,0,0,1-1.51.31,3.71,3.71,0,0,1-2.94-1.32,4.51,4.51,0,0,1-1.15-3,14.07,14.07,0,0,1,.54-3.32q.53-2.1,1.39-4.67t2-5.37c.73-1.86,1.44-3.66,2.15-5.4s1.37-3.33,2-4.8,1.11-2.66,1.48-3.55q-2.69.62-5.65,1.39a22,22,0,0,1-5.7.79A4.44,4.44,0,0,1,145.76,16a3.85,3.85,0,0,1-1.28-3,3.81,3.81,0,0,1,1.26-2.94A4.14,4.14,0,0,1,148.62,9a.31.31,0,0,1,.22.11,30.61,30.61,0,0,0,3.8-.48c1.31-.24,2.61-.53,3.92-.86s2.6-.68,3.88-1,2.53-.68,3.72-1c.26-.59.53-1.23.81-1.9A9.86,9.86,0,0,1,166,2,5.25,5.25,0,0,1,167.4.56a3.58,3.58,0,0,1,2-.56,4.07,4.07,0,0,1,2.79,1,4,4,0,0,1,1.34,2.66c3-.63,6.11-1.27,9.26-1.9a47.94,47.94,0,0,1,9.42-.95,17.14,17.14,0,0,1,2.32.17,7.2,7.2,0,0,1,2.21.67,4.77,4.77,0,0,1,1.68,1.41,3.91,3.91,0,0,1,.67,2.36A3.9,3.9,0,0,1,197.9,8.3Z" fill="#fff"/><path d="M190.61,47.58a10.92,10.92,0,0,1-3,3.81,13.11,13.11,0,0,1-4.42,2.26,18.73,18.73,0,0,1-5.37.76,24,24,0,0,1-4.19-.42,17.55,17.55,0,0,1-4.42-1.4A10.9,10.9,0,0,1,165.7,50a5.58,5.58,0,0,1-1.43-3.91,8,8,0,0,1,1.09-3.47,30.86,30.86,0,0,1,2.83-4.33q1.73-2.27,3.83-4.53t4.11-4.08a33.19,33.19,0,0,1,3.69-2.94,5.35,5.35,0,0,1,2.51-1.11,4.4,4.4,0,0,1,2.66.92,10,10,0,0,1,2.29,2.4,21.09,21.09,0,0,1,1.87,3.33,29.26,29.26,0,0,1,1.4,3.69,34.81,34.81,0,0,1,.87,3.49,16,16,0,0,1,.31,2.72A12.13,12.13,0,0,1,190.61,47.58ZM183.06,39a25.14,25.14,0,0,0-1.29-3l-2.35,2.13c-.82.74-1.63,1.51-2.43,2.29s-1.55,1.59-2.26,2.43a25.51,25.51,0,0,0-1.9,2.55,11.69,11.69,0,0,0,2.43.61,16.89,16.89,0,0,0,4.56,0,5.93,5.93,0,0,0,1.9-.56,3.6,3.6,0,0,0,1.37-1.2,3.53,3.53,0,0,0,.53-2A9.74,9.74,0,0,0,183.06,39Z" fill="#fff"/><path d="M221.19,33.47a16.28,16.28,0,0,1-4.94,4.41,27.06,27.06,0,0,1-6.46,2.74,36.05,36.05,0,0,1-6.49,1.26,21.94,21.94,0,0,0,1.15,3.1,12.24,12.24,0,0,0,1.7,2.77,8.13,8.13,0,0,0,2.38,2,6.62,6.62,0,0,0,3.88.7,4.62,4.62,0,0,0,.73-.17,1.74,1.74,0,0,0,.45-.06,2.08,2.08,0,0,1,.39-.05,3.47,3.47,0,0,1,2.8,1.28,4.42,4.42,0,0,1,1.06,2.85,4,4,0,0,1-.53,2.18,3.79,3.79,0,0,1-1.43,1.32,6.06,6.06,0,0,1-2,.64,14.85,14.85,0,0,1-2.21.17,13.46,13.46,0,0,1-6.85-1.76,17,17,0,0,1-5.17-4.61,21.6,21.6,0,0,1-3.25-6.38,23.36,23.36,0,0,1-1.12-7A16,16,0,0,1,197,31.65a19.47,19.47,0,0,1,4.39-5.85,21.1,21.1,0,0,1,6.27-3.91,19.17,19.17,0,0,1,7.26-1.43,12.16,12.16,0,0,1,3.11.4,7.77,7.77,0,0,1,2.63,1.23,6.38,6.38,0,0,1,1.84,2.09,6.17,6.17,0,0,1,.7,3.05A10.2,10.2,0,0,1,221.19,33.47ZM215,28.63a10.79,10.79,0,0,0-2.8.39,16.61,16.61,0,0,0-2.79,1,14.73,14.73,0,0,0-2.49,1.51,12,12,0,0,0-2,1.88c.79-.15,1.66-.36,2.63-.62a22.3,22.3,0,0,0,2.85-1A16.06,16.06,0,0,0,213,30.45a9.45,9.45,0,0,0,2.07-1.82Z" fill="#fff"/></g></g></svg>