<svg xmlns="http://www.w3.org/2000/svg" viewBox="0 0 215.22 57.1"><g id="Layer_2" data-name="Layer 2"><g id="Layer_1-2" data-name="Layer 1"><path d="M52.06,8.08a3.74,3.74,0,0,1-2.75,1.18A3.81,3.81,0,0,1,47.84,9a3.7,3.7,0,0,0-1.42-.27,39.24,39.24,0,0,0-5.34.38c-1.81.25-3.65.57-5.5,1s-3.69.79-5.5,1.23-3.58.83-5.29,1.2L23.29,16q-1,2.36-2.18,5.26c-.78,2-1.59,4-2.42,6.08s-1.6,4.1-2.29,6-1.25,3.57-1.69,5a13.1,13.1,0,0,0-.65,3.19A3.19,3.19,0,0,1,13.7,43a3.88,3.88,0,0,1-.92,1.17A4.81,4.81,0,0,1,11.5,45a3.79,3.79,0,0,1-1.47.3A3.65,3.65,0,0,1,7.16,44a4.42,4.42,0,0,1-1.11-3,13.75,13.75,0,0,1,.52-3.24c.34-1.37.79-2.88,1.36-4.55s1.2-3.42,1.9-5.23,1.41-3.57,2.1-5.26,1.34-3.25,1.94-4.69S15,15.47,15.31,14.6c-1.74.4-3.58.86-5.5,1.36a21.74,21.74,0,0,1-5.56.77,4.28,4.28,0,0,1-3-1.15A3.74,3.74,0,0,1,0,12.7,3.71,3.71,0,0,1,1.23,9.83,4,4,0,0,1,4,8.72a.29.29,0,0,1,.22.11A31.37,31.37,0,0,0,8,8.36Q9.87,8,11.77,7.52c1.27-.33,2.53-.66,3.79-1s2.46-.66,3.62-1c.25-.58.52-1.2.79-1.86a9.32,9.32,0,0,1,1-1.79A5.18,5.18,0,0,1,22.34.54a3.47,3.47,0,0,1,2-.54A4,4,0,0,1,27,1a3.84,3.84,0,0,1,1.3,2.59c3-.62,6-1.24,9-1.86A47,47,0,0,1,46.53.82,16.13,16.13,0,0,1,48.79,1a6.83,6.83,0,0,1,2.15.66A4.63,4.63,0,0,1,52.58,3a3.73,3.73,0,0,1,.65,2.3A3.8,3.8,0,0,1,52.06,8.08Z" fill="#fff"/><path d="M31.74,33.59c-.46,1.44-.95,2.87-1.47,4.31s-1,2.87-1.47,4.3a14.4,14.4,0,0,0-.68,4.44,3.72,3.72,0,0,1-.33,1.55,4,4,0,0,1-.9,1.28,4.64,4.64,0,0,1-1.28.88,3.71,3.71,0,0,1-1.53.32A3.57,3.57,0,0,1,21,49.2a5.68,5.68,0,0,1-1.06-3.38,14.72,14.72,0,0,1,.63-4.27q.63-2.1,1.44-4.17c.55-1.38,1.07-2.75,1.56-4.12a17.78,17.78,0,0,0,.95-4.16,4.2,4.2,0,0,1,1.22-2.73,3.66,3.66,0,0,1,2.7-1.14,3.9,3.9,0,0,1,4,4A14.58,14.58,0,0,1,31.74,33.59Zm9.67-12.78a5.42,5.42,0,0,1-1.28,1.61,6,6,0,0,1-1.74,1.06,5.08,5.08,0,0,1-1.94.38,5.68,5.68,0,0,1-2.34-.54,8.53,8.53,0,0,1-2.18-1.42,8.25,8.25,0,0,1-1.64-2,4.54,4.54,0,0,1-.65-2.31,3.71,3.71,0,0,1,1.17-2.73,3.82,3.82,0,0,1,2.75-1.14,4,4,0,0,1,3.11,1.42,1.82,1.82,0,0,1,.68-.19l.68,0a3.71,3.71,0,0,1,2.73,1.17,3.82,3.82,0,0,1,1.14,2.75A4.07,4.07,0,0,1,41.41,20.81Z" fill="#fff"/><path d="M58.44,33.73a3.39,3.39,0,0,1-2.65,1.2,3,3,0,0,1-1.68-.44,5.13,5.13,0,0,1-1.09-1,11.46,11.46,0,0,1-.74-1,.81.81,0,0,0-.63-.43,3.57,3.57,0,0,0-1.9.65,11.64,11.64,0,0,0-2.07,1.72,25,25,0,0,0-2,2.39,25.66,25.66,0,0,0-1.77,2.67,17.6,17.6,0,0,0-1.22,2.54,5.91,5.91,0,0,0-.47,2.07l.11.22a3.39,3.39,0,0,0,1.45,1.36,4.33,4.33,0,0,0,1.93.43A6.72,6.72,0,0,0,48,45.82a16,16,0,0,0,2-.84c.6-.31,1.17-.59,1.71-.85a3.8,3.8,0,0,1,1.58-.38,3.43,3.43,0,0,1,2.65,1.17,4,4,0,0,1,1.06,2.7,3.86,3.86,0,0,1-1.28,2.86,11.39,11.39,0,0,1-3.08,2.07,17,17,0,0,1-3.76,1.26,16.71,16.71,0,0,1-3.27.4,10.73,10.73,0,0,1-4-.76,11.82,11.82,0,0,1-3.44-2.07,10,10,0,0,1-2.39-3.13,8.84,8.84,0,0,1-.9-4,13.54,13.54,0,0,1,.71-4.14,25.94,25.94,0,0,1,1.9-4.47,29.39,29.39,0,0,1,2.84-4.31,26.11,26.11,0,0,1,3.51-3.67,17.23,17.23,0,0,1,3.9-2.56,9.18,9.18,0,0,1,4-1,7.32,7.32,0,0,1,4.42,1.36A10.09,10.09,0,0,1,59,29a4.5,4.5,0,0,1,.38,1,4.75,4.75,0,0,1,.11,1A4,4,0,0,1,58.44,33.73Z" fill="#fff"/><path d="M114.56,8.08a3.74,3.74,0,0,1-2.75,1.18A3.86,3.86,0,0,1,110.33,9a3.62,3.62,0,0,0-1.41-.27,39,39,0,0,0-5.34.38q-2.73.38-5.5,1c-1.86.38-3.69.79-5.51,1.23s-3.58.83-5.28,1.2L85.79,16q-1,2.36-2.18,5.26L81.18,27.3q-1.25,3.15-2.28,6c-.69,1.89-1.26,3.57-1.69,5a12.77,12.77,0,0,0-.66,3.19A3.31,3.31,0,0,1,76.2,43a4.08,4.08,0,0,1-.93,1.17A4.81,4.81,0,0,1,74,45a3.72,3.72,0,0,1-1.47.3A3.63,3.63,0,0,1,69.66,44a4.43,4.43,0,0,1-1.12-3,14.3,14.3,0,0,1,.52-3.24c.35-1.37.8-2.88,1.36-4.55s1.2-3.42,1.91-5.23,1.41-3.57,2.1-5.26,1.33-3.25,1.93-4.69,1.08-2.59,1.45-3.46c-1.75.4-3.58.86-5.51,1.36a21.67,21.67,0,0,1-5.55.77,4.25,4.25,0,0,1-3-1.15A3.71,3.71,0,0,1,62.5,12.7a3.7,3.7,0,0,1,1.22-2.87,4.06,4.06,0,0,1,2.81-1.11.31.31,0,0,1,.22.11,31.21,31.21,0,0,0,3.7-.47q1.9-.34,3.81-.84c1.28-.33,2.54-.66,3.79-1s2.46-.66,3.62-1c.26-.58.52-1.2.79-1.86a9.36,9.36,0,0,1,1-1.79A5.18,5.18,0,0,1,84.84.54a3.45,3.45,0,0,1,2-.54,4,4,0,0,1,2.72,1A3.86,3.86,0,0,1,90.83,3.6q4.41-.93,9-1.86A47,47,0,0,1,109,.82a16.23,16.23,0,0,1,2.26.16,6.83,6.83,0,0,1,2.15.66A4.6,4.6,0,0,1,115.07,3a3.74,3.74,0,0,1,.66,2.3A3.8,3.8,0,0,1,114.56,8.08Z" fill="#fff"/><path d="M106,35.5a3.14,3.14,0,0,1-2.37,1.66V38a10.39,10.39,0,0,1-.21,2.07,9.71,9.71,0,0,0-.22,2.07,7.9,7.9,0,0,0,.49,3.19,8.12,8.12,0,0,0,1.06,1.77c.38.47.74.92,1.06,1.34a3.08,3.08,0,0,1,.49,1.93,3.72,3.72,0,0,1-.3,1.47,4.81,4.81,0,0,1-.79,1.28,3.82,3.82,0,0,1-1.17.93,3.25,3.25,0,0,1-1.5.35,3.38,3.38,0,0,1-1.9-.62A7.79,7.79,0,0,1,99,52.28a13.75,13.75,0,0,1-1.33-2,17,17,0,0,1-.93-1.88,16.25,16.25,0,0,1-3.54,2.5A8.65,8.65,0,0,1,89,52a7.27,7.27,0,0,1-5.18-1.85,6.68,6.68,0,0,1-2-5.07,14.14,14.14,0,0,1,.71-3.92,33.17,33.17,0,0,1,1.94-4.88,46.35,46.35,0,0,1,2.86-5.07,35.37,35.37,0,0,1,3.48-4.57,18.87,18.87,0,0,1,3.84-3.3,7.28,7.28,0,0,1,3.9-1.25,6.15,6.15,0,0,1,3.51,1,9.06,9.06,0,0,1,2.51,2.54A12.07,12.07,0,0,1,106.17,29a13.47,13.47,0,0,1,.51,3.59A6.25,6.25,0,0,1,106,35.5Zm-6.73-3.14a3.72,3.72,0,0,0-.21-1.17,4.06,4.06,0,0,0-.55-1.06,6.54,6.54,0,0,0-1.66,1.31A21.38,21.38,0,0,0,95,33.62c-.61.83-1.23,1.73-1.85,2.69S92,38.23,91.51,39.18s-.92,1.83-1.28,2.67A13.65,13.65,0,0,0,89.47,44a4.84,4.84,0,0,0,2.09-1.09A11.2,11.2,0,0,0,93.33,41c.55-.72,1.07-1.48,1.56-2.26s1-1.51,1.44-2.2a15.7,15.7,0,0,1,1.42-1.8,2.86,2.86,0,0,1,1.52-.93Z" fill="#fff"/><path d="M134.5,33.73a3.39,3.39,0,0,1-2.64,1.2,3,3,0,0,1-1.69-.44,5.13,5.13,0,0,1-1.09-1c-.29-.35-.54-.67-.74-1a.81.81,0,0,0-.62-.43,3.58,3.58,0,0,0-1.91.65,11.64,11.64,0,0,0-2.07,1.72,24.92,24.92,0,0,0-2,2.39,24.28,24.28,0,0,0-1.78,2.67,20,20,0,0,0-1.22,2.54,5.87,5.87,0,0,0-.46,2.07l.1.22a3.44,3.44,0,0,0,1.45,1.36,4.36,4.36,0,0,0,1.93.43,6.68,6.68,0,0,0,2.32-.38,15.4,15.4,0,0,0,2-.84c.6-.31,1.17-.59,1.72-.85a3.77,3.77,0,0,1,1.58-.38,3.43,3.43,0,0,1,2.64,1.17,3.9,3.9,0,0,1,1.06,2.7,3.86,3.86,0,0,1-1.28,2.86,11.24,11.24,0,0,1-3.08,2.07,17,17,0,0,1-3.76,1.26,16.62,16.62,0,0,1-3.27.4,10.77,10.77,0,0,1-4-.76,11.63,11.63,0,0,1-3.43-2.07,10,10,0,0,1-2.4-3.13,8.84,8.84,0,0,1-.9-4,13.85,13.85,0,0,1,.71-4.14,26,26,0,0,1,1.91-4.47,28.54,28.54,0,0,1,2.83-4.31,26.11,26.11,0,0,1,3.51-3.67,17.45,17.45,0,0,1,3.9-2.56,9.19,9.19,0,0,1,4-1,7.31,7.31,0,0,1,4.41,1.36A10.09,10.09,0,0,1,135.07,29a4.5,4.5,0,0,1,.38,1,4.15,4.15,0,0,1,.11,1A4,4,0,0,1,134.5,33.73Z" fill="#fff"/><path d="M190.62,8.08A3.9,3.9,0,0,1,186.4,9,3.7,3.7,0,0,0,185,8.72a39.24,39.24,0,0,0-5.34.38q-2.73.38-5.5,1t-5.51,1.23q-2.72.65-5.28,1.2L161.85,16q-1,2.36-2.18,5.26c-.78,2-1.59,4-2.42,6.08s-1.6,4.1-2.29,6-1.25,3.57-1.69,5a12.63,12.63,0,0,0-.65,3.19,3.19,3.19,0,0,1-.36,1.5,3.88,3.88,0,0,1-.92,1.17,4.86,4.86,0,0,1-1.29.79,3.72,3.72,0,0,1-1.47.3A3.65,3.65,0,0,1,145.72,44a4.42,4.42,0,0,1-1.11-3,14.19,14.19,0,0,1,.51-3.24c.35-1.37.8-2.88,1.37-4.55s1.19-3.42,1.9-5.23,1.41-3.57,2.1-5.26,1.34-3.25,1.93-4.69,1.09-2.59,1.45-3.46c-1.74.4-3.58.86-5.5,1.36a21.74,21.74,0,0,1-5.56.77,4.28,4.28,0,0,1-3-1.15,3.74,3.74,0,0,1-1.25-2.88,3.73,3.73,0,0,1,1.22-2.87,4.08,4.08,0,0,1,2.81-1.11.31.31,0,0,1,.22.11,31,31,0,0,0,3.7-.47c1.27-.23,2.55-.51,3.82-.84s2.53-.66,3.78-1,2.46-.66,3.63-1l.79-1.86a9.32,9.32,0,0,1,1-1.79A5.18,5.18,0,0,1,160.9.54a3.47,3.47,0,0,1,2-.54,4,4,0,0,1,2.72,1,3.81,3.81,0,0,1,1.31,2.59q4.41-.93,9-1.86a47,47,0,0,1,9.18-.92,16.13,16.13,0,0,1,2.26.16,6.83,6.83,0,0,1,2.15.66A4.63,4.63,0,0,1,191.14,3a3.8,3.8,0,0,1,.65,2.3A3.8,3.8,0,0,1,190.62,8.08Z" fill="#fff"/><path d="M183.51,46.37a10.63,10.63,0,0,1-2.94,3.7,12.75,12.75,0,0,1-4.31,2.21A18.11,18.11,0,0,1,171,53a23.63,23.63,0,0,1-4.08-.41,17.22,17.22,0,0,1-4.31-1.37,10.72,10.72,0,0,1-3.4-2.47A5.45,5.45,0,0,1,157.85,45a7.63,7.63,0,0,1,1.06-3.38,30.08,30.08,0,0,1,2.75-4.22q1.69-2.2,3.73-4.41t4-4A32.54,32.54,0,0,1,173,26.1,5.21,5.21,0,0,1,175.45,25a4.28,4.28,0,0,1,2.58.9,10,10,0,0,1,2.24,2.34,20,20,0,0,1,1.82,3.24,29.43,29.43,0,0,1,1.37,3.6,32.91,32.91,0,0,1,.84,3.4,15.14,15.14,0,0,1,.3,2.65A11.78,11.78,0,0,1,183.51,46.37ZM176.15,38a26.16,26.16,0,0,0-1.25-3l-2.29,2.07c-.8.73-1.59,1.48-2.37,2.24s-1.51,1.55-2.2,2.37a25.85,25.85,0,0,0-1.86,2.48,11.78,11.78,0,0,0,2.37.6,16.65,16.65,0,0,0,2.32.16,14.71,14.71,0,0,0,2.12-.14,5.93,5.93,0,0,0,1.86-.54,3.27,3.27,0,0,0,1.85-3.13A9.28,9.28,0,0,0,176.15,38Z" fill="#fff"/><path d="M213.31,32.61a15.86,15.86,0,0,1-4.82,4.3,26.06,26.06,0,0,1-6.29,2.67,34.89,34.89,0,0,1-6.32,1.23,21.53,21.53,0,0,0,1.11,3,12.25,12.25,0,0,0,1.67,2.7A7.82,7.82,0,0,0,201,48.47a6.29,6.29,0,0,0,3.08.73,6.22,6.22,0,0,0,.71-.05,3.88,3.88,0,0,0,.71-.17,1.58,1.58,0,0,0,.43,0,1.55,1.55,0,0,1,.39-.06A3.35,3.35,0,0,1,209,50.13a4.24,4.24,0,0,1,1,2.78,3.94,3.94,0,0,1-.51,2.12,3.64,3.64,0,0,1-1.39,1.28,6.06,6.06,0,0,1-1.94.63,14,14,0,0,1-2.15.16,13.12,13.12,0,0,1-6.67-1.71,16.68,16.68,0,0,1-5-4.5,20.69,20.69,0,0,1-3.16-6.21,22.5,22.5,0,0,1-1.09-6.87,15.6,15.6,0,0,1,1.6-7A18.9,18.9,0,0,1,194,25.15a20.47,20.47,0,0,1,6.1-3.82,18.85,18.85,0,0,1,7.09-1.39,12,12,0,0,1,3,.38,7.74,7.74,0,0,1,2.56,1.2,6.34,6.34,0,0,1,1.8,2.05,6,6,0,0,1,.68,3A10,10,0,0,1,213.31,32.61Zm-6-4.71a10.26,10.26,0,0,0-2.73.38,15.31,15.31,0,0,0-2.72,1,13.55,13.55,0,0,0-2.43,1.47,11.6,11.6,0,0,0-1.93,1.82c.76-.14,1.61-.34,2.56-.6A21.7,21.7,0,0,0,202.8,31a16,16,0,0,0,2.56-1.36,9.17,9.17,0,0,0,2-1.77Z" fill="#fff"/></g></g></svg>